<svg xmlns="http://www.w3.org/2000/svg" width="21" height="22" viewBox="0 0 21 22" fill="none">
<path fill-rule="evenodd" clip-rule="evenodd" d="M2.32984 7.04734L3.94611 7.05811C4.36032 7.06087 4.69386 7.39889 4.6911 7.81309C4.68834 8.2273 4.35032 8.56084 3.93612 8.55808L0.745003 8.53682C0.332749 8.53407 0 8.1991 0 7.78683V4.61771C0 4.2035 0.335786 3.86771 0.75 3.86771C1.16421 3.86771 1.5 4.2035 1.5 4.61771V5.63619C3.31472 2.66421 6.58792 0.676636 10.3233 0.676636C16.0242 0.676636 20.6467 5.29915 20.6467 11C20.6467 16.7008 16.0242 21.3233 10.3233 21.3233C4.62252 21.3233 0 16.7008 0 11C0 10.5858 0.335786 10.25 0.75 10.25C1.16421 10.25 1.5 10.5858 1.5 11C1.5 15.8724 5.45094 19.8233 10.3233 19.8233C15.1957 19.8233 19.1467 15.8724 19.1467 11C19.1467 6.12758 15.1957 2.17664 10.3233 2.17664C6.98181 2.17664 4.06912 4.03778 2.56759 6.7857C2.5082 6.89437 2.42585 6.9825 2.32984 7.04734ZM8.52371 6.80312C8.52371 6.74407 8.57624 6.53135 9.01143 6.2901C9.42056 6.0633 10.0363 5.89959 10.7565 5.89959C11.4768 5.89959 12.0925 6.0633 12.5016 6.2901C12.9368 6.53135 12.9893 6.74407 12.9893 6.80312V7.03183H8.52371V6.80312ZM7.02371 7.22836V6.80312C7.02371 5.94962 7.63949 5.33557 8.28417 4.9782C8.9549 4.60637 9.83058 4.39959 10.7565 4.39959C11.6825 4.39959 12.5581 4.60637 13.2289 4.9782C13.8735 5.33557 14.4893 5.94962 14.4893 6.80312V7.22829C15.8032 7.70546 16.7265 8.99616 16.7265 10.4817V12.9791C16.7265 14.8603 15.246 16.429 13.3666 16.429H8.14666C6.26726 16.429 4.7867 14.8603 4.7867 12.9791V10.4817C4.7867 8.99624 5.70992 7.7056 7.02371 7.22836ZM12.3418 11.3818C12.3418 12.0429 11.9162 12.5306 11.3814 12.7462V13.9731C11.3814 14.3183 11.1016 14.5981 10.7564 14.5981C10.4112 14.5981 10.1314 14.3183 10.1314 13.9731V12.746C9.59685 12.5303 9.17147 12.0427 9.17147 11.3818C9.17147 10.4752 9.972 9.89474 10.7567 9.89474C11.5413 9.89474 12.3418 10.4752 12.3418 11.3818ZM6.2867 10.4817C6.2867 9.38067 7.14318 8.53183 8.14666 8.53183H13.3666C14.3701 8.53183 15.2265 9.38067 15.2265 10.4817V12.9791C15.2265 14.0802 14.3701 14.929 13.3666 14.929H8.14666C7.14318 14.929 6.2867 14.0802 6.2867 12.9791V10.4817Z" fill="white"/>
</svg>