<svg xmlns="http://www.w3.org/2000/svg" width="21" height="19" viewBox="0 0 21 19" fill="none">
<path fill-rule="evenodd" clip-rule="evenodd" d="M9.625 7.91659C9.14175 7.91659 8.75 8.27103 8.75 8.70825V15.8333C8.75 16.2705 9.14175 16.6249 9.625 16.6249H17.5C17.9832 16.6249 18.375 16.2705 18.375 15.8333V8.70825C18.375 8.27103 17.9832 7.91659 17.5 7.91659H9.625ZM7 8.70825C7 7.39658 8.17525 6.33325 9.625 6.33325H17.5C18.9497 6.33325 20.125 7.39658 20.125 8.70825V15.8333C20.125 17.1449 18.9497 18.2083 17.5 18.2083H9.625C8.17525 18.2083 7 17.1449 7 15.8333V8.70825Z" fill="#0D72BB"/>
<path fill-rule="evenodd" clip-rule="evenodd" d="M6.625 5.58333C6.39294 5.58333 6.17038 5.66674 6.00628 5.81521C5.84219 5.96367 5.75 6.16504 5.75 6.375V13.5C5.75 13.71 5.84219 13.9113 6.00628 14.0598C6.17038 14.2083 6.39294 14.2917 6.625 14.2917H7.5C7.98325 14.2917 8.375 14.6461 8.375 15.0833C8.375 15.5206 7.98325 15.875 7.5 15.875H6.625C5.92881 15.875 5.26113 15.6248 4.76884 15.1794C4.27656 14.734 4 14.1299 4 13.5V6.375C4 5.74511 4.27656 5.14102 4.76884 4.69562C5.26113 4.25022 5.92881 4 6.625 4H14.5C15.1962 4 15.8639 4.25022 16.3562 4.69562C16.8484 5.14102 17.125 5.74511 17.125 6.375V7.16667C17.125 7.60389 16.7332 7.95833 16.25 7.95833C15.7668 7.95833 15.375 7.60389 15.375 7.16667V6.375C15.375 6.16504 15.2828 5.96367 15.1187 5.81521C14.9546 5.66674 14.7321 5.58333 14.5 5.58333H6.625Z" fill="#98C1DE"/>
</svg>