<svg xmlns="http://www.w3.org/2000/svg" width="15" height="17" viewBox="0 0 15 17" fill="none">
  <path fill-rule="evenodd" clip-rule="evenodd" d="M6 1.41667C5.58579 1.41667 5.25 1.7338 5.25 2.125H9.75C9.75 1.7338 9.41421 1.41667 9 1.41667H6ZM11.25 2.125C11.25 0.951395 10.2426 0 9 0H6C4.75736 0 3.75 0.951395 3.75 2.125H0.75C0.335786 2.125 0 2.44213 0 2.83333C0 3.22453 0.335786 3.54167 0.75 3.54167H14.25C14.6642 3.54167 15 3.22453 15 2.83333C15 2.44213 14.6642 2.125 14.25 2.125H11.25Z" fill="white"/>
  <path fill-rule="evenodd" clip-rule="evenodd" d="M5.57702 7.08478C5.99039 7.05976 6.34697 7.35595 6.37346 7.74635L6.74846 13.2714C6.77496 13.6618 6.46134 13.9985 6.04798 14.0235C5.63461 14.0486 5.27803 13.7524 5.25154 13.362L4.87654 7.83698C4.85004 7.44658 5.16366 7.10981 5.57702 7.08478Z" fill="white"/>
  <path fill-rule="evenodd" clip-rule="evenodd" d="M9.42298 7.08478C9.00961 7.05976 8.65303 7.35595 8.62654 7.74635L8.25154 13.2714C8.22504 13.6618 8.53866 13.9985 8.95202 14.0235C9.36539 14.0486 9.72197 13.7524 9.74846 13.362L10.1235 7.83698C10.15 7.44658 9.83634 7.10981 9.42298 7.08478Z" fill="white"/>
  <path fill-rule="evenodd" clip-rule="evenodd" d="M0.808481 5.44429C0.724548 4.81013 1.24811 4.25 1.92479 4.25H13.0752C13.7519 4.25 14.2755 4.81013 14.1915 5.44429L12.9085 15.1386C12.7677 16.202 11.8106 17 10.6758 17H4.32417C3.18945 17 2.23229 16.202 2.09155 15.1386L0.808481 5.44429ZM2.34959 5.66667L3.57997 14.9629C3.62688 15.3173 3.94593 15.5833 4.32417 15.5833H10.6758C11.0541 15.5833 11.3731 15.3173 11.42 14.9629L12.6504 5.66667H2.34959Z" fill="white"/>
</svg>