  <svg xmlns="http://www.w3.org/2000/svg" width="48" height="48" viewBox="0 0 48 48" fill="none">
                <path
                    d="M8 18.8334V29.4117C8 33.2984 8 33.2984 11.6667 35.7734L21.75 41.6034C23.2717 42.4834 25.7467 42.4834 27.25 41.6034L37.3333 35.7734C41 33.2984 41 33.2984 41 29.4301V18.8334C41 14.9651 41 14.9651 37.3333 12.4901L27.25 6.66006C25.7467 5.78006 23.2717 5.78006 21.75 6.66006L11.6667 12.4901C8 14.9651 8 14.9651 8 18.8334Z"
                    stroke="#349E49"
                    strokeWidth="2"
                    strokeLinecap="round"
                    strokeLinejoin="round"
                />
                <path
                    d="M24.4995 29.6318C27.5371 29.6318 29.9995 27.1693 29.9995 24.1318C29.9995 21.0942 27.5371 18.6318 24.4995 18.6318C21.4619 18.6318 18.9995 21.0942 18.9995 24.1318C18.9995 27.1693 21.4619 29.6318 24.4995 29.6318Z"
                    stroke="#349E49"
                    strokeWidth="2"
                    strokeLinecap="round"
                    strokeLinejoin="round"
                />
                <rect x="1" y="1" width="46" height="46" stroke="#349E49" strokeWidth="2" />
            </svg>