<svg xmlns="http://www.w3.org/2000/svg" width="17" height="17" viewBox="0 0 17 17" fill="none">
  <path fill-rule="evenodd" clip-rule="evenodd" d="M14.0028 0.673725C13.0975 -0.224576 11.6297 -0.224575 10.7244 0.673726L1.6428 9.68509L0.284014 13.7299C-0.0180286 14.629 0.844033 15.4844 1.75016 15.1847L5.82651 13.8364L14.9081 4.82506C15.8135 3.92676 15.8135 2.47033 14.9081 1.57203L14.0028 0.673725ZM11.8172 1.75807C12.119 1.45864 12.6083 1.45864 12.91 1.75807L13.8153 2.65637C14.1171 2.9558 14.1171 3.44128 13.8153 3.74072L13.1364 4.41444L11.1383 2.4318L11.8172 1.75807ZM10.0455 3.51614L12.0436 5.49879L5.40909 12.0819L3.41099 10.0993L10.0455 3.51614ZM2.65588 11.5187L3.9786 12.8312L1.99452 13.4874L2.65588 11.5187Z" fill="white"/>
  <path d="M0.772727 15.4665C0.345962 15.4665 0 15.8098 0 16.2333C0 16.6567 0.345962 17 0.772727 17H16.2273C16.654 17 17 16.6567 17 16.2333C17 15.8098 16.654 15.4665 16.2273 15.4665L0.772727 15.4665Z" fill="white"/>
</svg>