<svg xmlns="http://www.w3.org/2000/svg" width="50" height="50" viewBox="0 0 50 50" fill="none">
                <path
                    d="M39 1H11C5.47715 1 1 5.47715 1 11V39C1 44.5229 5.47715 49 11 49H39C44.5229 49 49 44.5229 49 39V11C49 5.47715 44.5229 1 39 1Z"
                    stroke="#349E49"
                    strokeWidth="2"
                />
                <path d="M4 9.5H45" stroke="#349E49" strokeOpacity="0.3" strokeWidth="2" strokeLinecap="round" />
                <path d="M4 14.5H45" stroke="#349E49" strokeOpacity="0.3" strokeWidth="2" strokeLinecap="round" />
                <path d="M4 19.5H45" stroke="#349E49" strokeOpacity="0.3" strokeWidth="2" strokeLinecap="round" />
                <path d="M4 24.5H45" stroke="#349E49" strokeOpacity="0.3" strokeWidth="2" strokeLinecap="round" />
                <path d="M4 29.5H45" stroke="#349E49" strokeOpacity="0.3" strokeWidth="2" strokeLinecap="round" />
                <path d="M4 34.5H45" stroke="#349E49" strokeOpacity="0.77" strokeWidth="2" strokeLinecap="round" />
                <path d="M4 39.5H45" stroke="#349E49" strokeOpacity="0.3" strokeWidth="2" strokeLinecap="round" />
                <path
                    d="M13.4783 27.6096C13.6939 25.2707 14.3153 23.8169 15.4375 22.5861C19.2644 18.3833 23.0829 14.17 26.9351 9.99857C28.6524 8.14617 30.7759 7.6491 33.1597 8.44475C35.3222 9.17024 36.8079 11.2384 36.9239 13.5913C36.9965 15.1435 36.5324 16.5459 35.4941 17.6987C31.5917 21.9899 27.68 26.2802 23.7607 30.5505C22.415 32.018 20.6756 32.6687 18.7315 32.7999C17.4863 32.8861 16.2545 32.7434 15.055 32.3736C14.6493 32.2465 14.3887 31.9997 14.2384 31.6008C13.6459 30.1116 13.3934 28.551 13.4783 27.6096ZM25.6514 14.8307C25.5675 14.9087 25.494 14.978 25.4308 15.0389C22.6526 18.0803 19.8847 21.1131 17.116 24.1554C16.8264 24.4814 16.5613 24.8482 16.3706 25.2321C15.5531 26.8389 15.6737 28.4823 16.1445 30.1416C16.1727 30.2403 16.3336 30.3428 16.4466 30.3542C16.9815 30.427 17.5248 30.5103 18.0664 30.5166C19.7193 30.5385 21.1684 30.0314 22.3143 28.755C25.0001 25.7811 27.7123 22.829 30.415 19.876C30.5112 19.7705 30.6084 19.6555 30.7159 19.532C29.0102 17.9503 27.3393 16.401 25.6514 14.8307ZM32.2822 17.8563C32.8179 17.2576 33.3582 16.7072 33.8458 16.1133C35.0144 14.7048 34.8943 12.6777 33.597 11.3865C32.343 10.138 30.3059 10.0584 28.9596 11.2476C28.3232 11.8074 27.7809 12.4727 27.1735 13.1219C28.8793 14.7035 30.5586 16.2633 32.2822 17.8563Z"
                    fill="black"
                />
            </svg>