 <svg xmlns="http://www.w3.org/2000/svg" width="237" height="77" viewBox="0 0 237 77" fill="none">
                    <g filter="url(#filter0_d_1_187)">
                        <path
                            d="M216.917 53.6435H175.234V16.6086C175.234 13.8786 176.401 11.2604 178.477 9.33007C180.553 7.39969 183.37 6.31522 186.306 6.31522H226.149V45.0667C226.149 46.1938 225.91 47.3099 225.446 48.3512C224.982 49.3925 224.302 50.3387 223.445 51.1357C222.587 51.9327 221.57 52.5649 220.45 52.9962C219.329 53.4275 218.129 53.6495 216.917 53.6495"
                            fill="#ED1C24"
                        />
                        <path
                            d="M165.898 54.2128C164.324 54.2128 162.815 53.6316 161.702 52.5972C160.59 51.5627 159.965 50.1597 159.965 48.6968V18.4403C159.965 16.9774 160.59 15.5744 161.702 14.5399C162.815 13.5055 164.324 12.9243 165.898 12.9243C167.471 12.9243 168.981 13.5055 170.093 14.5399C171.206 15.5744 171.831 16.9774 171.831 18.4403V48.6968C171.831 50.1597 171.206 51.5627 170.093 52.5972C168.981 53.6316 167.471 54.2128 165.898 54.2128Z"
                            fill="#349E49"
                        />
                        <path
                            d="M115.931 54.2128C117.504 54.2128 119.014 53.6316 120.126 52.5972C121.239 51.5627 121.864 50.1597 121.864 48.6968V18.4403C121.864 16.9774 121.239 15.5744 120.126 14.5399C119.014 13.5055 117.504 12.9243 115.931 12.9243C114.357 12.9243 112.848 13.5055 111.735 14.5399C110.623 15.5744 109.998 16.9774 109.998 18.4403V48.6968C109.998 50.1597 110.623 51.5627 111.735 52.5972C112.848 53.6316 114.357 54.2128 115.931 54.2128Z"
                            fill="#349E49"
                        />
                        <path
                            d="M165.898 12.9243C164.324 12.9243 162.815 13.5055 161.702 14.5399C160.59 15.5744 159.965 16.9774 159.965 18.4403V38.4216L171.831 24.0442V18.4403C171.831 16.9774 171.206 15.5744 170.093 14.5399C168.981 13.5055 167.471 12.9243 165.898 12.9243Z"
                            fill="#005D28"
                        />
                        <path
                            d="M109.998 18.4403V24.0411L121.864 38.4185V18.4373C121.864 16.9743 121.239 15.5713 120.126 14.5368C119.014 13.5024 117.504 12.9212 115.931 12.9212C114.357 12.9212 112.848 13.5024 111.735 14.5368C110.623 15.5713 109.998 16.9743 109.998 18.4373"
                            fill="#005D28"
                        />
                        <path
                            d="M169.515 14.0626C168.266 13.1727 166.688 12.7803 165.128 12.9716C163.568 13.1629 162.153 13.9223 161.195 15.0829L140.914 39.6598L120.63 15.0829C120.159 14.5 119.568 14.0098 118.892 13.6405C118.216 13.2712 117.468 13.0302 116.691 12.9314C115.914 12.8326 115.123 12.8779 114.366 13.0648C113.608 13.2516 112.897 13.5763 112.275 14.0201C111.653 14.4638 111.131 15.0179 110.741 15.6501C110.35 16.2823 110.099 16.9802 110 17.7035C109.902 18.4267 109.958 19.161 110.167 19.8637C110.375 20.5665 110.732 21.2238 111.215 21.7978L135.886 51.6878C136.349 52.3781 136.973 52.9631 137.711 53.4C138.449 53.8369 139.283 54.1146 140.152 54.2127H140.175C140.338 54.2309 140.501 54.246 140.66 54.2521H141.168C141.331 54.2521 141.494 54.2309 141.65 54.2127H141.676C142.545 54.1146 143.379 53.8369 144.117 53.4C144.855 52.9631 145.479 52.3781 145.942 51.6878L170.61 21.7978C171.084 21.2231 171.432 20.5672 171.634 19.8674C171.836 19.1676 171.888 18.4378 171.786 17.7195C171.684 17.0012 171.432 16.3085 171.042 15.6811C170.652 15.0536 170.134 14.5037 169.515 14.0626Z"
                            fill="#EC2227"
                        />
                        <path
                            d="M106.191 37.3649C105.969 36.3952 105.557 35.4717 104.976 34.6402C104.48 33.9582 103.827 33.3873 103.065 32.9691C103.598 32.6041 104.078 32.1756 104.491 31.6945C105.53 30.5017 106.035 28.667 106.035 26.1058V22.8664C106.035 22.5213 106.035 22.1883 105.999 21.8613V21.2558C105.999 20.163 105.768 19.0809 105.318 18.0712C104.869 17.0615 104.21 16.144 103.379 15.3711C102.548 14.5983 101.561 13.9852 100.475 13.5669C99.3894 13.1486 98.2255 12.9333 97.05 12.9333H54.8823V54.2551H97.6427C100.014 54.2519 102.288 53.3736 103.963 51.8131C105.639 50.2526 106.579 48.1375 106.578 45.9326V41.2552C106.603 39.9486 106.469 38.6435 106.178 37.3649M66.4785 22.1005H92.9013C93.4836 22.1307 94.0313 22.3672 94.4317 22.7614C94.8321 23.1556 95.0547 23.6775 95.0538 24.2197V27.011C95.0547 27.5532 94.8321 28.0751 94.4317 28.4693C94.0313 28.8635 93.4836 29.1 92.9013 29.1302H66.4785V22.1005ZM91.742 45.1092H66.4785V37.48H93.3377C93.637 37.48 93.9335 37.5348 94.21 37.6413C94.4866 37.7478 94.7379 37.9039 94.9495 38.1007C95.1612 38.2975 95.3291 38.5311 95.4437 38.7882C95.5582 39.0453 95.6172 39.3209 95.6172 39.5992V42.9657C95.6172 43.5278 95.377 44.0668 94.9495 44.4642C94.522 44.8617 93.9422 45.0849 93.3377 45.0849H91.742V45.1092Z"
                            fill="#349E49"
                        />
                        <path
                            d="M51.0755 35.076C50.5955 33.6877 49.7065 32.4521 48.5094 31.5097C47.2084 30.5426 45.6833 29.87 44.0546 29.5449C42.0056 29.1307 39.9119 28.9377 37.8153 28.9697H17.2639C16.9749 28.9698 16.6886 28.9184 16.4204 28.8183C16.1046 28.7651 15.8073 28.6415 15.5542 28.458C15.2419 28.1363 15.0569 27.7251 15.0299 27.2924C14.9985 27.1489 14.9822 27.0029 14.9811 26.8565V24.5223C14.9795 24.2085 15.0529 23.8983 15.196 23.6141C15.2604 23.3572 15.4028 23.1228 15.6063 22.939C15.7701 22.8209 15.9524 22.7269 16.1469 22.6604C16.4879 22.482 16.8726 22.3882 17.2639 22.388H31.475V12.9453H17.2443C15.3038 12.9142 13.3677 13.1302 11.4902 13.5871C9.92372 13.9676 8.48566 14.7089 7.30891 15.7427C6.17076 16.8181 5.34883 18.1472 4.92193 19.6027C4.40284 21.3676 4.15722 23.1924 4.19249 25.0219V26.9806C4.16863 28.5516 4.35791 30.119 4.75585 31.6459C5.1139 33.0018 5.8665 34.2398 6.93116 35.2244C8.10422 36.2371 9.53355 36.9577 11.0864 37.3194C13.097 37.7869 15.1657 38.0027 17.2378 37.9612H38.7303C38.8548 37.962 38.9789 37.9721 39.1016 37.9915H39.1537C39.2644 38.0133 39.3732 38.0427 39.4793 38.0793L39.5347 38.0974C39.6478 38.1327 39.7569 38.1783 39.8603 38.2337L39.8994 38.2549C40.0029 38.3104 40.1009 38.3742 40.1925 38.4456C40.5318 38.7052 40.782 39.0514 40.9122 39.4416V39.4598C40.9393 39.5462 40.96 39.6342 40.974 39.7232V39.7807C40.9881 39.874 40.9957 39.9681 40.9968 40.0623V42.6871C40.9928 43.0612 40.8842 43.428 40.6815 43.7513C40.4788 44.0745 40.189 44.3432 39.8408 44.5308C39.6811 44.6161 39.5104 44.6822 39.3328 44.7276L39.2742 44.7427L39.0625 44.7821H38.9909C38.9003 44.7942 38.8088 44.8003 38.7173 44.8002H4.13062V54.252H37.8283C39.93 54.2864 42.0285 54.0831 44.0774 53.6465C45.6981 53.3016 47.2134 52.6195 48.5094 51.6514C49.713 50.7019 50.6027 49.4549 51.0755 48.0547C51.6005 46.4295 51.8488 44.7379 51.8115 43.0413V39.9624C51.8454 38.3116 51.597 36.6664 51.0755 35.0882"
                            fill="#349E49"
                        />
                        <path
                            d="M10.9301 60.2071H9.79681C9.81137 59.9409 9.75008 59.6759 9.61914 59.4388C9.4882 59.2017 9.29224 59.001 9.05109 58.8569C8.60091 58.6047 8.08163 58.4795 7.55638 58.4966C7.09828 58.4765 6.64192 58.5617 6.22775 58.7448C5.98827 58.8595 5.79044 59.0373 5.65897 59.2559C5.5275 59.4745 5.46822 59.7243 5.48854 59.974C5.48092 60.1136 5.50611 60.2531 5.56235 60.3828C5.61858 60.5124 5.70452 60.6291 5.81418 60.7248C6.02836 60.8795 6.27983 60.9834 6.54688 61.0275L9.15204 61.5876C9.69952 61.6872 10.2028 61.9359 10.5979 62.3021C11.0018 62.7217 11.2133 63.2714 11.1873 63.834C11.2098 64.2409 11.1115 64.6456 10.9029 65.0039C10.6944 65.3623 10.3838 65.6603 10.0052 65.8654C9.2918 66.238 8.48158 66.4203 7.66384 66.3922C7.03243 66.4106 6.40317 66.315 5.81092 66.1106C5.48037 65.9815 5.17631 65.8002 4.91215 65.5748C4.59018 65.3137 4.34385 64.9816 4.19573 64.609C4.06068 64.2324 3.99463 63.8374 4.00034 63.4404H5.13358C5.11423 63.7436 5.17964 64.0463 5.32344 64.319C5.46725 64.5917 5.68456 64.8251 5.95421 64.9965C6.46037 65.2909 7.05117 65.4346 7.64756 65.4083C8.29504 65.4477 8.93927 65.2951 9.48745 64.9723C9.6575 64.8608 9.79485 64.7116 9.88699 64.5382C9.97913 64.3647 10.0231 64.1726 10.015 63.9793C10.0329 63.8068 10.0075 63.6329 9.94081 63.4711C9.87413 63.3093 9.76799 63.1641 9.63073 63.0469C9.16393 62.7759 8.64542 62.5908 8.10346 62.5019L6.21472 62.1023C5.79151 62.0175 5.39283 61.8493 5.04566 61.6088C4.80163 61.4328 4.60676 61.2047 4.47753 60.9438C4.3483 60.683 4.2885 60.3971 4.30319 60.1102C4.29012 59.7826 4.34698 59.4558 4.47051 59.1487C4.59403 58.8416 4.78176 58.5603 5.02286 58.321C5.57646 57.7821 6.36778 57.5127 7.40333 57.5127C8.79057 57.5127 9.77293 57.8447 10.3504 58.5087C10.7512 58.9944 10.9563 59.5954 10.9301 60.2071Z"
                            fill="#231F20"
                        />
                        <path
                            d="M13.5906 66.159V60.0193H14.6261V60.8822C14.8122 60.6472 15.0313 60.4365 15.2774 60.2555C15.67 59.988 16.1455 59.8467 16.6321 59.8528C16.9811 59.8429 17.3269 59.9181 17.6351 60.0708C17.9642 60.2599 18.2302 60.5303 18.4036 60.8519C18.6476 60.5841 18.9291 60.3479 19.2405 60.1495C19.5978 59.9532 20.0078 59.8555 20.4226 59.868C20.8904 59.8527 21.3499 59.9862 21.7252 60.2464C22.2288 60.6036 22.4807 61.1657 22.4807 61.9327V66.1711H21.3572V62.1991C21.384 61.8402 21.2956 61.4819 21.1032 61.1698C20.989 61.0329 20.8398 60.9246 20.6692 60.8548C20.4986 60.7851 20.312 60.7559 20.1263 60.7701C19.9134 60.7649 19.7021 60.806 19.5094 60.8901C19.3166 60.9742 19.1476 61.099 19.0158 61.2545C18.73 61.5805 18.5787 61.9906 18.5892 62.411V66.159H17.482V61.9206C17.493 61.6527 17.417 61.3879 17.2638 61.1607C17.1768 61.0345 17.0553 60.9321 16.9116 60.864C16.768 60.7959 16.6075 60.7645 16.4465 60.7732C16.0398 60.7602 15.6441 60.8973 15.3458 61.1546C14.9159 61.5149 14.6945 62.0629 14.6945 62.8016V66.156L13.5906 66.159Z"
                            fill="#231F20"
                        />
                        <path
                            d="M26.076 61.8963H25.0404C25.0166 61.596 25.0735 61.2949 25.206 61.0201C25.3384 60.7453 25.5423 60.5054 25.7992 60.3221C26.3821 59.9805 27.0651 59.8164 27.753 59.8528C28.2375 59.8437 28.7183 59.9315 29.1631 60.1101C29.4777 60.2209 29.7469 60.4208 29.9328 60.6816C30.1186 60.9423 30.2116 61.2508 30.1986 61.5633V65.0903C30.1986 65.3386 30.3224 65.4627 30.5731 65.4627L30.9281 65.4173V66.1681L30.6317 66.2407C30.5258 66.2683 30.4161 66.2816 30.3061 66.2801C30.1351 66.2947 29.9627 66.2753 29.8004 66.2231C29.6381 66.1709 29.4897 66.0871 29.365 65.9773C29.21 65.7957 29.1334 65.5669 29.1501 65.3355C28.9057 65.5929 28.6228 65.8162 28.3099 65.9985C27.8456 66.2334 27.3242 66.3533 26.7956 66.3467C26.2496 66.3676 25.7161 66.1907 25.3075 65.8532C25.1153 65.6901 24.9638 65.4898 24.8637 65.2665C24.7636 65.0432 24.7172 64.8022 24.7278 64.5605C24.7208 64.1841 24.8341 63.8143 25.0534 63.4979C25.3791 63.0195 25.9587 62.738 26.7598 62.6441L28.5737 62.4322C28.7176 62.4322 28.8561 62.3814 28.9612 62.2899C29.1056 62.1263 29.1747 61.9163 29.1533 61.7056C29.1533 61.0365 28.6388 60.7005 27.6163 60.7005C27.3952 60.6826 27.1725 60.7109 26.9647 60.7831C26.7568 60.8554 26.5689 60.9699 26.4146 61.1183C26.2383 61.3485 26.1264 61.6159 26.089 61.8963M29.1142 64.0156V63.0074C28.9696 63.1111 28.7995 63.1797 28.6193 63.2072C28.3848 63.2617 27.968 63.3223 27.3916 63.3949C26.9692 63.4134 26.5594 63.5345 26.203 63.7461C26.0983 63.8232 26.0144 63.9218 25.9579 64.0343C25.9013 64.1468 25.8738 64.2699 25.8773 64.394C25.8559 64.5425 25.8722 64.6936 25.9249 64.8352C25.9776 64.9768 26.0652 65.1049 26.1807 65.2094C26.2963 65.3139 26.4365 65.3917 26.5902 65.4368C26.7439 65.4818 26.9069 65.4928 27.0659 65.4687C27.5768 65.4757 28.0763 65.328 28.489 65.0479C28.6763 64.9372 28.831 64.7848 28.939 64.6046C29.047 64.4243 29.105 64.2219 29.1077 64.0156"
                            fill="#231F20"
                        />
                        <path
                            d="M34.0248 62.5927V66.159H32.9143V60.0193H33.9596V61.0487C34.1646 60.715 34.4378 60.4219 34.764 60.1859C35.0762 59.967 35.4573 59.85 35.8484 59.8528C35.9414 59.8491 36.0345 59.8573 36.1252 59.8771V60.9579H35.7148C35.4865 60.95 35.259 60.9879 35.0478 61.0688C34.8366 61.1498 34.6465 61.272 34.4904 61.4271C34.177 61.744 34.0099 62.1625 34.0248 62.5927Z"
                            fill="#231F20"
                        />
                        <path
                            d="M40.163 60.8821H39.1047V64.8692C39.0945 64.9518 39.1119 65.0353 39.1544 65.1084C39.1969 65.1815 39.2625 65.2407 39.3424 65.278C39.4739 65.3257 39.615 65.3463 39.756 65.3385H40.163V66.1589L39.3326 66.2498C39.1312 66.2689 38.9277 66.2442 38.7383 66.1774C38.5489 66.1107 38.3789 66.0038 38.2417 65.8653C38.0497 65.5831 37.9617 65.2505 37.991 64.9177V60.8821H37.0857V60.0193H37.991V58.3087H39.1047V60.0193H40.163V60.8821Z"
                            fill="#231F20"
                        />
                        <path
                            d="M46.1323 66.1591V57.7488H50.115C50.8138 57.7101 51.5012 57.9274 52.0297 58.3543C52.2454 58.545 52.415 58.7762 52.5273 59.0324C52.6395 59.2887 52.692 59.5642 52.681 59.8408C52.6875 60.1622 52.6092 60.4803 52.4531 60.7672C52.2381 61.1387 51.8936 61.4313 51.4761 61.5967C51.8525 61.7365 52.2022 61.9317 52.5117 62.1749C52.7188 62.3703 52.8799 62.6037 52.9847 62.8601C53.0896 63.1166 53.1359 63.3905 53.1207 63.6644C53.1316 63.9901 53.0675 64.3142 52.9327 64.6149C52.7979 64.9157 52.5955 65.1862 52.3391 65.4083C51.706 65.9223 50.8827 66.1872 50.0433 66.147L46.1323 66.1591ZM47.3698 58.7024V61.3061H49.5614C50.0447 61.3346 50.5264 61.2293 50.9453 61.0033C51.119 60.8794 51.2563 60.7168 51.3445 60.5306C51.4328 60.3443 51.4691 60.1404 51.4501 59.9376C51.4644 59.7665 51.4343 59.5947 51.3624 59.4367C51.2904 59.2786 51.1787 59.139 51.0365 59.0294C50.6033 58.7766 50.0942 58.6599 49.5842 58.6964L47.3698 58.7024ZM47.3698 62.2234V65.1752H49.9749C50.488 65.2084 50.9961 65.0639 51.4012 64.7695C51.5651 64.6276 51.6935 64.454 51.7773 64.261C51.8611 64.068 51.8984 63.8602 51.8865 63.6523C51.9063 63.4177 51.8522 63.1829 51.7307 62.9764C51.6093 62.7699 51.4258 62.6009 51.2026 62.4898C50.7565 62.2908 50.2638 62.1992 49.7698 62.2234H47.3698Z"
                            fill="#231F20"
                        />
                        <path
                            d="M56.3998 61.8964H55.3675C55.3448 61.5965 55.4018 61.296 55.5336 61.0215C55.6653 60.7469 55.8678 60.5068 56.123 60.3221C56.7109 59.9783 57.3998 59.8142 58.0931 59.8529C58.5775 59.8441 59.0583 59.9318 59.5032 60.1102C59.8172 60.2215 60.0857 60.4216 60.2709 60.6823C60.4561 60.943 60.5487 61.2512 60.5355 61.5634V65.0904C60.5355 65.3386 60.6625 65.4628 60.9132 65.4628L61.2682 65.4174V66.1682L60.9718 66.2408C60.8658 66.2682 60.7562 66.2814 60.6462 66.2802C60.4752 66.2948 60.3028 66.2754 60.1405 66.2232C59.9782 66.1709 59.8298 66.0872 59.7051 65.9774C59.5501 65.7958 59.4735 65.567 59.4902 65.3356C59.2361 65.5918 58.9432 65.812 58.6207 65.9895C58.1544 66.2286 57.6291 66.3507 57.0967 66.3438C56.5505 66.3653 56.0167 66.1883 55.6085 65.8503C55.4163 65.6871 55.2649 65.4869 55.1647 65.2636C55.0646 65.0403 55.0182 64.7993 55.0288 64.5576C55.0218 64.1812 55.1352 63.8114 55.3545 63.4949C55.6801 63.0166 56.2598 62.735 57.0609 62.6412L58.8747 62.4293C59.0186 62.4293 59.1572 62.3784 59.2622 62.287C59.4066 62.1234 59.4757 61.9134 59.4543 61.7027C59.4543 61.0346 58.9409 60.6996 57.914 60.6976C57.6934 60.6799 57.4714 60.7083 57.2641 60.7806C57.0568 60.8528 56.8694 60.9672 56.7157 61.1153C56.5393 61.3455 56.4274 61.6129 56.39 61.8934M59.4185 64.0126V63.0045C59.2735 63.1076 59.1036 63.1762 58.9235 63.2043C58.6891 63.2588 58.2722 63.3193 57.6959 63.392C57.2726 63.4112 56.8619 63.5322 56.504 63.7432C56.3999 63.8207 56.3164 63.9195 56.2599 64.0318C56.2035 64.1442 56.1755 64.2671 56.1784 64.391C56.1672 64.5352 56.1868 64.6801 56.236 64.8172C56.2852 64.9544 56.363 65.0811 56.4649 65.1903C56.5874 65.2906 56.7305 65.3668 56.8855 65.4141C57.0406 65.4615 57.2044 65.4791 57.367 65.4658C57.8779 65.4728 58.3774 65.3251 58.79 65.045C58.9773 64.9343 59.132 64.7819 59.24 64.6016C59.3481 64.4214 59.406 64.2189 59.4087 64.0126"
                            fill="#231F20"
                        />
                        <path
                            d="M65.5113 60.8821H64.453V64.8692C64.4436 64.9521 64.4616 65.0356 64.5047 65.1087C64.5477 65.1817 64.6138 65.2408 64.694 65.278C64.8255 65.3257 64.9666 65.3463 65.1075 65.3385H65.5113V66.1589L64.6809 66.2498C64.48 66.2684 64.2771 66.2434 64.0884 66.1767C63.8996 66.11 63.7301 66.0034 63.5933 65.8653C63.3999 65.5835 63.3107 65.2508 63.3393 64.9177V60.8821H62.4373V60.0193H63.3393V58.3087H64.453V60.0193H65.5113V60.8821Z"
                            fill="#231F20"
                        />
                        <path
                            d="M69.6568 60.8821H68.5985V64.8692C68.5891 64.9521 68.6071 65.0356 68.6502 65.1087C68.6933 65.1817 68.7593 65.2408 68.8395 65.278C68.971 65.3257 69.1121 65.3463 69.2531 65.3385H69.6568V66.1589L68.8265 66.2498C68.6255 66.2684 68.4226 66.2434 68.2339 66.1767C68.0451 66.11 67.8756 66.0034 67.7388 65.8653C67.5454 65.5835 67.4562 65.2508 67.4848 64.9177V60.8821H66.5828V60.0193H67.5011V58.3087H68.6148V60.0193H69.6731L69.6568 60.8821Z"
                            fill="#231F20"
                        />
                        <path
                            d="M75.8635 64.2367H76.9772C76.9244 64.4954 76.8253 64.7441 76.6841 64.9723C76.4749 65.3466 76.1681 65.6661 75.7918 65.9018C75.6058 66.0262 75.4033 66.1279 75.1894 66.2045C74.8049 66.3161 74.4034 66.3682 74.0008 66.3589C73.5951 66.3754 73.1906 66.3066 72.8174 66.1578C72.4441 66.0089 72.1118 65.7838 71.845 65.4991C71.2977 64.8687 71.0164 64.0743 71.0537 63.2649C71.0019 62.4011 71.2684 61.5468 71.8092 60.8429C72.0998 60.5124 72.4708 60.2509 72.8914 60.0798C73.3121 59.9088 73.7705 59.8331 74.2288 59.859C74.638 59.839 75.0459 59.9164 75.414 60.0838C75.7821 60.2512 76.0982 60.5031 76.3324 60.8156C76.81 61.4514 77.0499 62.3213 77.0521 63.4253H72.2391C72.2013 63.961 72.3737 64.4913 72.7243 64.9178C73.079 65.2347 73.5464 65.4196 74.038 65.4375C74.5295 65.4553 75.0111 65.3049 75.3913 65.0147C75.6457 64.8203 75.8139 64.5454 75.8635 64.2427M72.2391 62.5988H75.9188C75.9429 62.1456 75.7954 61.6989 75.502 61.3364C75.3291 61.1614 75.1189 61.0217 74.8849 60.9262C74.6509 60.8306 74.3981 60.7813 74.1425 60.7813C73.8869 60.7813 73.634 60.8306 73.4 60.9262C73.166 61.0217 72.9558 61.1614 72.7829 61.3364C72.4295 61.6789 72.2343 62.1363 72.2391 62.6109"
                            fill="#231F20"
                        />
                        <path
                            d="M80.4649 62.5927V66.159H79.3577V60.0193H80.39V61.0487C80.596 60.7148 80.8704 60.4217 81.1976 60.1859C81.5096 59.9666 81.8909 59.8495 82.282 59.8528C82.375 59.8491 82.4681 59.8573 82.5588 59.8771V60.9579H82.155C81.9266 60.95 81.6991 60.9879 81.4879 61.0688C81.2767 61.1498 81.0866 61.272 80.9305 61.4271C80.6163 61.7437 80.4479 62.1621 80.4616 62.5927"
                            fill="#231F20"
                        />
                        <path
                            d="M88.7526 60.0194H89.99C89.6014 61.0285 89.2161 62.0235 88.834 63.0044C88.4519 63.9853 88.047 64.9945 87.6193 66.0319C87.0918 67.2701 86.701 68.0179 86.4535 68.2722C86.206 68.5265 85.7306 68.6506 85.0239 68.6506C84.9687 68.6559 84.9131 68.6559 84.8578 68.6506C84.7341 68.6143 84.6364 68.5871 84.568 68.5719V67.6334C84.6364 67.6576 84.7341 67.6818 84.8546 67.7121C84.9761 67.74 85.1007 67.7542 85.2258 67.7545C85.3367 67.7641 85.4484 67.7488 85.5516 67.7098C85.6548 67.6708 85.7463 67.6093 85.8185 67.5305C86.0564 67.1454 86.2538 66.7399 86.4079 66.3195L83.9656 60.0163H85.2258L86.9615 65.0056L88.7526 60.0194Z"
                            fill="#231F20"
                        />
                        <path
                            d="M104.68 66.159H103.498V59.0808L100.951 66.159H99.7399L97.1966 59.105V66.159H96.0112V57.7487H97.7502L100.349 64.8481L102.938 57.7487H104.68V66.159Z"
                            fill="#231F20"
                        />
                        <path
                            d="M108.396 61.8964H107.36C107.336 61.5961 107.393 61.295 107.526 61.0202C107.658 60.7454 107.862 60.5055 108.119 60.3222C108.702 59.9802 109.385 59.8161 110.073 59.8529C110.557 59.8441 111.038 59.9319 111.483 60.1102C111.797 60.2211 112.066 60.4212 112.251 60.682C112.436 60.9428 112.529 61.2511 112.515 61.5634V65.0904C112.515 65.3387 112.642 65.4628 112.893 65.4628L113.248 65.4174V66.1682L112.951 66.2408C112.845 66.2682 112.736 66.2814 112.626 66.2802C112.455 66.2948 112.282 66.2754 112.12 66.2232C111.958 66.171 111.809 66.0872 111.685 65.9774C111.53 65.7958 111.453 65.567 111.47 65.3356C111.216 65.591 110.924 65.8112 110.603 65.9896C110.136 66.2282 109.61 66.3502 109.076 66.3438C108.53 66.3653 107.996 66.1883 107.588 65.8503C107.396 65.6871 107.244 65.4869 107.144 65.2636C107.044 65.0403 106.998 64.7993 107.008 64.5576C107.001 64.1812 107.115 63.8114 107.334 63.4949C107.66 63.0166 108.239 62.735 109.04 62.6412L110.854 62.4293C110.998 62.4293 111.137 62.3784 111.242 62.287C111.386 62.1234 111.455 61.9134 111.434 61.7027C111.434 61.0346 110.92 60.6996 109.894 60.6976C109.673 60.6799 109.451 60.7083 109.244 60.7806C109.036 60.8529 108.849 60.9672 108.695 61.1154C108.519 61.3455 108.407 61.6129 108.37 61.8934M111.395 64.0126V63.0045C111.25 63.1081 111.08 63.1768 110.9 63.2043C110.665 63.2588 110.248 63.3193 109.672 63.392C109.25 63.4105 108.84 63.5316 108.483 63.7432C108.379 63.8203 108.295 63.9189 108.238 64.0314C108.182 64.1438 108.154 64.267 108.158 64.3911C108.136 64.5396 108.153 64.6907 108.205 64.8323C108.258 64.9739 108.346 65.102 108.461 65.2065C108.577 65.311 108.717 65.3888 108.871 65.4338C109.024 65.4789 109.187 65.4898 109.346 65.4658C109.857 65.4728 110.357 65.3251 110.77 65.045C110.957 64.9343 111.111 64.7819 111.22 64.6017C111.328 64.4214 111.386 64.219 111.388 64.0126"
                            fill="#231F20"
                        />
                        <path
                            d="M120.454 61.9872V66.159H119.347V62.3868C119.386 61.9651 119.285 61.5423 119.057 61.1758C118.92 61.0284 118.746 60.914 118.551 60.8423C118.356 60.7706 118.145 60.7438 117.937 60.7641C117.531 60.7536 117.138 60.893 116.843 61.1516C116.41 61.5088 116.191 62.0598 116.191 62.7985V66.1529H115.084V60.0193H116.117V60.8821C116.315 60.6462 116.545 60.4346 116.8 60.2524C117.188 59.9904 117.656 59.8504 118.136 59.8528C118.686 59.8275 119.231 59.9676 119.689 60.2524C120.197 60.6036 120.451 61.1819 120.451 61.9872"
                            fill="#231F20"
                        />
                        <path
                            d="M123.89 61.8964H122.861C122.837 61.5964 122.893 61.2954 123.025 61.0207C123.157 60.7459 123.36 60.5059 123.616 60.3221C124.204 59.9783 124.893 59.8142 125.586 59.8529C126.071 59.8441 126.552 59.9318 126.996 60.1102C127.31 60.2215 127.579 60.4216 127.764 60.6823C127.949 60.943 128.042 61.2512 128.029 61.5634V65.0904C128.029 65.3386 128.156 65.4628 128.403 65.4628L128.761 65.4174V66.1682L128.462 66.2408C128.361 66.267 128.257 66.2803 128.152 66.2802C127.981 66.295 127.809 66.2756 127.647 66.2234C127.484 66.1712 127.336 66.0873 127.211 65.9774C127.056 65.7958 126.98 65.567 126.996 65.3356C126.74 65.5957 126.444 65.8191 126.117 65.9986C125.651 66.2373 125.126 66.3593 124.593 66.3528C124.046 66.3739 123.512 66.197 123.102 65.8594C122.911 65.6956 122.76 65.4951 122.661 65.2719C122.561 65.0487 122.515 64.8081 122.525 64.5666C122.518 64.1903 122.632 63.8204 122.851 63.504C123.177 63.0257 123.756 62.7441 124.557 62.6503L126.371 62.4383C126.515 62.4384 126.654 62.3875 126.759 62.296C126.902 62.132 126.97 61.922 126.948 61.7117C126.948 61.0437 126.435 60.7087 125.411 60.7066C125.19 60.689 124.968 60.7174 124.761 60.7896C124.553 60.8619 124.366 60.9763 124.212 61.1244C124.034 61.3539 123.922 61.6217 123.887 61.9025M126.915 64.0217V63.0136C126.77 63.1167 126.6 63.1853 126.42 63.2134C126.182 63.2679 125.769 63.3284 125.192 63.4011C124.769 63.4203 124.358 63.5413 124.001 63.7523C123.896 63.8293 123.812 63.928 123.755 64.0404C123.699 64.1529 123.671 64.276 123.675 64.4001C123.664 64.5443 123.683 64.6891 123.733 64.8263C123.782 64.9634 123.859 65.0902 123.961 65.1994C124.084 65.3 124.227 65.3763 124.382 65.4237C124.537 65.4711 124.701 65.4885 124.863 65.4749C125.374 65.4814 125.874 65.3338 126.287 65.0541C126.474 64.9434 126.629 64.791 126.737 64.6107C126.845 64.4305 126.903 64.228 126.905 64.0217"
                            fill="#231F20"
                        />
                        <path
                            d="M136.049 60.0195V65.6445C136.084 66.289 135.951 66.9318 135.662 67.5185C135.188 68.3258 134.292 68.7294 132.972 68.7294C132.466 68.7427 131.965 68.6386 131.513 68.4267C131.212 68.2742 130.957 68.0536 130.772 67.7853C130.587 67.517 130.478 67.2097 130.455 66.8918H131.562C131.586 67.0376 131.641 67.1775 131.723 67.3033C131.806 67.4291 131.915 67.5383 132.044 67.6244C132.343 67.8026 132.695 67.8903 133.05 67.8757C133.853 67.8757 134.396 67.6184 134.678 67.1037C134.872 66.6816 134.959 66.2238 134.932 65.7656V65.4537L134.906 65.4992C134.748 65.7492 134.524 65.9576 134.255 66.1046C133.917 66.2805 133.535 66.3693 133.148 66.362C132.687 66.3822 132.23 66.2845 131.825 66.0795C131.42 65.8745 131.083 65.5701 130.852 65.1994C130.426 64.5058 130.217 63.715 130.249 62.9167C130.215 62.1309 130.475 61.3582 130.985 60.7309C131.223 60.45 131.528 60.2254 131.877 60.0755C132.226 59.9255 132.607 59.8544 132.991 59.8681C133.471 59.854 133.943 59.987 134.333 60.2465C134.578 60.4315 134.79 60.6511 134.961 60.8974L134.988 60.0346L136.049 60.0195ZM131.409 63.062C131.378 63.6635 131.534 64.2604 131.858 64.7816C131.994 64.9878 132.186 65.1567 132.415 65.2711C132.643 65.3854 132.901 65.4412 133.161 65.4325C133.595 65.4424 134.017 65.2947 134.336 65.0208C134.564 64.8043 134.74 64.5453 134.852 64.2608C134.965 63.9764 135.011 63.6731 134.988 63.3709C135.011 62.8034 134.912 62.2374 134.698 61.7057C134.57 61.4343 134.362 61.2021 134.098 61.0363C133.834 60.8704 133.524 60.7776 133.206 60.7688C132.887 60.7599 132.572 60.8352 132.298 60.9861C132.024 61.137 131.801 61.3571 131.656 61.621C131.469 62.0806 131.383 62.5709 131.405 63.062"
                            fill="#231F20"
                        />
                        <path
                            d="M142.888 64.2367H144.001C143.947 64.4951 143.848 64.7436 143.708 64.9723C143.499 65.3466 143.192 65.6661 142.816 65.9018C142.629 66.0269 142.426 66.1287 142.21 66.2045C141.827 66.3163 141.427 66.3685 141.025 66.3589C140.619 66.3756 140.215 66.3069 139.841 66.1581C139.468 66.0092 139.136 65.784 138.869 65.4991C138.322 64.8687 138.041 64.0743 138.078 63.2649C138.026 62.4011 138.293 61.5468 138.833 60.8429C139.124 60.5124 139.495 60.2509 139.916 60.0798C140.336 59.9088 140.795 59.8331 141.253 59.859C141.662 59.839 142.07 59.9164 142.438 60.0838C142.806 60.2512 143.122 60.5031 143.357 60.8156C143.836 61.4514 144.076 62.3213 144.076 63.4253H139.263C139.225 63.961 139.398 64.4913 139.748 64.9178C140.103 65.2347 140.571 65.4196 141.062 65.4375C141.554 65.4553 142.035 65.3049 142.415 65.0147C142.67 64.8203 142.838 64.5454 142.888 64.2427M139.263 62.5988H142.943C142.965 62.1458 142.818 61.6996 142.526 61.3364C142.353 61.1614 142.143 61.0217 141.909 60.9262C141.675 60.8306 141.422 60.7813 141.167 60.7813C140.911 60.7813 140.658 60.8306 140.424 60.9262C140.19 61.0217 139.98 61.1614 139.807 61.3364C139.454 61.6789 139.258 62.1363 139.263 62.6109"
                            fill="#231F20"
                        />
                        <path
                            d="M146.235 66.1591V60.0194H147.284V60.8822C147.47 60.6473 147.689 60.4365 147.935 60.2555C148.328 59.9881 148.803 59.8468 149.29 59.8529C149.64 59.843 149.987 59.9182 150.296 60.0709C150.616 60.2587 150.876 60.5233 151.048 60.8368C151.293 60.5699 151.575 60.3337 151.885 60.1344C152.243 59.9389 152.653 59.8413 153.067 59.8529C153.531 59.8456 153.983 59.9843 154.35 60.2465C154.854 60.6037 155.106 61.1658 155.106 61.9327V66.1712H153.999V62.1992C154.025 61.8406 153.938 61.4827 153.748 61.1698C153.633 61.0333 153.484 60.9254 153.314 60.8556C153.143 60.7859 152.957 60.7566 152.771 60.7702C152.558 60.765 152.346 60.8061 152.153 60.8901C151.959 60.9742 151.79 61.099 151.657 61.2546C151.373 61.5812 151.222 61.9909 151.231 62.4111V66.1591H150.124V61.9206C150.129 61.6493 150.048 61.3825 149.889 61.1547C149.801 61.0287 149.679 60.9265 149.535 60.8585C149.391 60.7904 149.23 60.7589 149.068 60.7672C148.663 60.7574 148.27 60.8967 147.974 61.1547C147.54 61.5139 147.323 62.0629 147.323 62.8016V66.1561L146.235 66.1591Z"
                            fill="#231F20"
                        />
                        <path
                            d="M162.218 64.2366H163.332C163.278 64.4954 163.177 64.7441 163.035 64.9723C162.828 65.347 162.522 65.6667 162.146 65.9017C161.96 66.0268 161.756 66.1286 161.541 66.2044C161.157 66.316 160.757 66.3682 160.355 66.3588C159.95 66.3755 159.545 66.3069 159.172 66.158C158.798 66.0091 158.466 65.7839 158.2 65.499C157.652 64.8686 157.371 64.0742 157.408 63.2648C157.356 62.4011 157.623 61.5467 158.164 60.8428C158.454 60.5126 158.824 60.2512 159.244 60.0801C159.664 59.9091 160.122 59.8332 160.58 59.8589C160.99 59.839 161.398 59.9163 161.767 60.0837C162.135 60.2511 162.452 60.5029 162.687 60.8156C163.165 61.4513 163.404 62.3212 163.407 63.4252H158.594C158.556 63.9609 158.728 64.4912 159.079 64.9178C159.433 65.2346 159.901 65.4195 160.392 65.4374C160.884 65.4553 161.366 65.3048 161.746 65.0146C162 64.8203 162.168 64.5453 162.218 64.2426M158.594 62.5987H162.264C162.286 62.1457 162.139 61.6996 161.847 61.3363C161.674 61.1454 161.455 60.9952 161.207 60.8979C160.96 60.8006 160.692 60.7589 160.424 60.7762C160.177 60.7735 159.932 60.8212 159.707 60.9158C159.482 61.0105 159.282 61.1499 159.121 61.3242C158.768 61.6667 158.572 62.1241 158.577 62.5987"
                            fill="#231F20"
                        />
                        <path
                            d="M170.929 61.9873V66.1592H169.822V62.387C169.863 61.9651 169.761 61.5419 169.532 61.176C169.395 61.0286 169.221 60.9142 169.026 60.8425C168.831 60.7708 168.62 60.744 168.412 60.7643C168.006 60.7545 167.613 60.8937 167.318 61.1518C166.888 61.509 166.666 62.06 166.666 62.7987V66.1531H165.556V60.0195H166.591V60.8823C166.79 60.6463 167.02 60.4347 167.275 60.2526C167.663 59.9902 168.131 59.8501 168.61 59.853C169.16 59.8281 169.703 59.9682 170.161 60.2526C170.669 60.6038 170.923 61.182 170.923 61.9873"
                            fill="#231F20"
                        />
                        <path
                            d="M175.807 60.8821H174.749V64.8692C174.739 64.9521 174.757 65.0356 174.8 65.1087C174.843 65.1817 174.91 65.2408 174.99 65.278C175.12 65.3252 175.26 65.3459 175.4 65.3385H175.807V66.1589L174.977 66.2498C174.776 66.2684 174.573 66.2434 174.384 66.1767C174.195 66.11 174.026 66.0034 173.889 65.8653C173.696 65.5835 173.606 65.2508 173.635 64.9177V60.8821H172.73V60.0193H173.635V58.3087H174.749V60.0193H175.807V60.8821Z"
                            fill="#231F20"
                        />
                        <path
                            d="M188.406 60.2071H187.273C187.288 59.9412 187.227 59.6764 187.097 59.4393C186.966 59.2022 186.771 59.0013 186.53 58.8569C186.079 58.6051 185.559 58.48 185.033 58.4966C184.574 58.4765 184.118 58.5617 183.704 58.7448C183.465 58.86 183.268 59.0379 183.137 59.2565C183.006 59.475 182.947 59.7246 182.968 59.974C182.96 60.1137 182.985 60.2534 183.041 60.3831C183.097 60.5129 183.183 60.6295 183.294 60.7248C183.506 60.8805 183.757 60.9845 184.023 61.0275L186.628 61.5876C187.176 61.6866 187.679 61.9353 188.074 62.3021C188.478 62.7217 188.689 63.2714 188.663 63.834C188.686 64.2405 188.588 64.6449 188.38 65.0032C188.172 65.3614 187.862 65.6597 187.485 65.8654C186.77 66.2377 185.959 66.4199 185.14 66.3922C184.509 66.4106 183.879 66.315 183.287 66.1106C182.957 65.9815 182.652 65.8002 182.388 65.5748C182.069 65.313 181.825 64.981 181.678 64.609C181.543 64.2324 181.477 63.8374 181.483 63.4404H182.616C182.595 63.7425 182.658 64.0446 182.8 64.3172C182.941 64.5899 183.156 64.8239 183.424 64.9965C183.929 65.2903 184.519 65.434 185.114 65.4083C185.761 65.4477 186.406 65.2951 186.954 64.9723C187.125 64.8614 187.263 64.7123 187.356 64.5388C187.448 64.3653 187.493 64.1729 187.485 63.9793C187.502 63.8069 187.476 63.6331 187.409 63.4715C187.343 63.3098 187.237 63.1645 187.1 63.0469C186.632 62.7765 186.113 62.5916 185.57 62.5019L183.697 62.1023C183.274 62.0169 182.876 61.8487 182.528 61.6088C182.284 61.4328 182.089 61.2047 181.96 60.9438C181.831 60.683 181.771 60.3971 181.786 60.1102C181.773 59.7826 181.83 59.4558 181.953 59.1487C182.077 58.8416 182.264 58.5603 182.506 58.321C183.059 57.7821 183.853 57.5127 184.886 57.5127C186.273 57.5127 187.25 57.8447 187.817 58.5087C188.219 58.9937 188.424 59.5952 188.396 60.2071"
                            fill="#231F20"
                        />
                        <path
                            d="M195.173 60.0194H196.41C196.022 61.0285 195.636 62.0235 195.254 63.0044C194.872 63.9853 194.467 64.9945 194.04 66.0319C193.512 67.2701 193.121 68.0179 192.874 68.2722C192.626 68.5265 192.148 68.6506 191.444 68.6506C191.389 68.6559 191.333 68.6559 191.278 68.6506C191.155 68.6143 191.057 68.5871 190.988 68.5719V67.6334C191.057 67.6576 191.155 67.6818 191.275 67.7121C191.396 67.74 191.521 67.7542 191.646 67.7545C191.757 67.7641 191.869 67.7488 191.972 67.7098C192.075 67.6708 192.167 67.6093 192.239 67.5305C192.477 67.1454 192.674 66.7399 192.828 66.3195L190.386 60.0163H191.646L193.382 65.0056L195.173 60.0194Z"
                            fill="#231F20"
                        />
                        <path
                            d="M202.998 61.7751H201.914C201.921 61.6557 201.902 61.5361 201.859 61.4234C201.816 61.3107 201.749 61.2069 201.663 61.1182C201.299 60.8393 200.831 60.7055 200.361 60.7458C200.022 60.7311 199.688 60.8147 199.403 60.985C199.294 61.0537 199.204 61.1467 199.143 61.2555C199.081 61.3644 199.05 61.4857 199.051 61.6086C199.043 61.7101 199.064 61.8119 199.113 61.903C199.162 61.9942 199.236 62.0714 199.328 62.1263C199.625 62.2634 199.939 62.3651 200.263 62.4291L201.37 62.6864C201.893 62.7721 202.384 62.9805 202.796 63.2919C202.937 63.4251 203.047 63.584 203.118 63.7586C203.189 63.9332 203.22 64.1196 203.21 64.3061C203.223 64.5904 203.164 64.8735 203.038 65.1328C202.912 65.392 202.722 65.6201 202.484 65.7986C201.95 66.1807 201.288 66.3758 200.615 66.3496C199.462 66.3496 198.66 66.0842 198.208 65.5534C197.891 65.1587 197.733 64.6738 197.759 64.182H198.84C198.824 64.37 198.861 64.5587 198.948 64.7292C199.035 64.8997 199.168 65.046 199.335 65.1538C199.714 65.3525 200.147 65.446 200.582 65.4232C200.95 65.4378 201.315 65.3604 201.64 65.1992C201.782 65.1266 201.899 65.0194 201.979 64.8891C202.06 64.7589 202.1 64.6106 202.096 64.4605C202.102 64.3584 202.08 64.2565 202.032 64.1644C201.985 64.0722 201.912 63.9929 201.823 63.9337C201.498 63.7634 201.148 63.6399 200.784 63.5674L199.501 63.2889C199.093 63.212 198.713 63.0389 198.397 62.7863C198.258 62.6556 198.15 62.4997 198.08 62.3282C198.009 62.1568 197.977 61.9736 197.987 61.7903C197.972 61.5053 198.034 61.2214 198.166 60.9638C198.297 60.7061 198.495 60.4826 198.742 60.3129C199.249 59.9824 199.859 59.8174 200.478 59.8436C201.145 59.8085 201.803 60.0012 202.327 60.3855C202.545 60.5535 202.718 60.7649 202.835 61.004C202.951 61.2431 203.008 61.5036 203.002 61.7661"
                            fill="#231F20"
                        />
                        <path
                            d="M207.723 60.8821H206.662V64.8692C206.652 64.9521 206.67 65.0356 206.713 65.1087C206.756 65.1817 206.823 65.2408 206.903 65.278C207.034 65.3257 207.175 65.3463 207.316 65.3385H207.723V66.1589L206.89 66.2498C206.689 66.2684 206.486 66.2434 206.297 66.1767C206.108 66.11 205.939 66.0034 205.802 65.8653C205.609 65.5835 205.519 65.2508 205.548 64.9177V60.8821H204.646V60.0193H205.548V58.3087H206.662V60.0193H207.723V60.8821Z"
                            fill="#231F20"
                        />
                        <path
                            d="M213.927 64.2367H215.041C214.988 64.4954 214.889 64.7441 214.748 64.9723C214.538 65.3466 214.232 65.6661 213.855 65.9018C213.67 66.0269 213.467 66.1287 213.253 66.2045C212.868 66.3161 212.467 66.3682 212.064 66.3589C211.659 66.376 211.255 66.3076 210.882 66.1586C210.509 66.0097 210.177 65.7843 209.912 65.4991C209.361 64.87 209.079 64.075 209.117 63.2649C209.065 62.4011 209.332 61.5468 209.873 60.8429C210.163 60.5124 210.534 60.2509 210.955 60.0798C211.376 59.9088 211.834 59.8331 212.292 59.859C212.701 59.839 213.109 59.9164 213.477 60.0838C213.846 60.2512 214.162 60.5031 214.396 60.8156C214.874 61.4514 215.113 62.3213 215.116 63.4253H210.303C210.265 63.961 210.437 64.4913 210.788 64.9178C211.142 65.2347 211.61 65.4196 212.101 65.4375C212.593 65.4553 213.075 65.3049 213.455 65.0147C213.709 64.8203 213.877 64.5454 213.927 64.2427M210.303 62.5988H213.982C214.006 62.1456 213.859 61.6989 213.565 61.3364C213.393 61.1614 213.182 61.0217 212.948 60.9262C212.714 60.8306 212.462 60.7813 212.206 60.7813C211.95 60.7813 211.698 60.8306 211.463 60.9262C211.229 61.0217 211.019 61.1614 210.846 61.3364C210.493 61.6789 210.298 62.1363 210.303 62.6109"
                            fill="#231F20"
                        />
                        <path
                            d="M217.274 66.1591V60.0194H218.307V60.8823C218.492 60.6467 218.711 60.4358 218.958 60.2556C219.349 59.9882 219.824 59.8468 220.309 59.8529C220.66 59.8431 221.006 59.9182 221.316 60.0709C221.636 60.2594 221.897 60.5237 222.071 60.8369C222.315 60.5691 222.597 60.3329 222.908 60.1345C223.264 59.9386 223.673 59.8409 224.087 59.8529C224.555 59.8372 225.014 59.9707 225.389 60.2314C225.893 60.5886 226.146 61.1507 226.148 61.9177V66.1561H225.041V62.1992C225.068 61.8403 224.979 61.482 224.787 61.1699C224.672 61.0334 224.523 60.9254 224.353 60.8557C224.182 60.786 223.996 60.7566 223.81 60.7703C223.597 60.7648 223.386 60.8058 223.193 60.8899C223 60.974 222.831 61.0989 222.7 61.2546C222.413 61.5803 222.26 61.9904 222.27 62.4111V66.1591H221.163V61.9207C221.173 61.6532 221.098 61.3889 220.948 61.1608C220.861 61.0346 220.739 60.9322 220.595 60.8641C220.452 60.796 220.291 60.7646 220.13 60.7733C219.724 60.764 219.33 60.9031 219.033 61.1608C218.599 61.5201 218.382 62.069 218.382 62.8077V66.1622L217.274 66.1591Z"
                            fill="#231F20"
                        />
                        <path
                            d="M220.411 34.7734C219.932 33.3852 219.044 32.1497 217.848 31.207C216.551 30.2416 215.03 29.5691 213.406 29.2422C211.357 28.8281 209.263 28.6351 207.167 28.667H186.602C186.313 28.6671 186.027 28.6158 185.759 28.5156C185.442 28.4616 185.144 28.3381 184.889 28.1554C184.579 27.8326 184.396 27.4218 184.368 26.9898C184.335 26.8465 184.319 26.7004 184.319 26.5538V24.2197C184.318 23.9059 184.391 23.5956 184.534 23.3114C184.599 23.0545 184.741 22.8202 184.945 22.6363C185.108 22.5182 185.291 22.4243 185.485 22.3578C185.826 22.1793 186.211 22.0855 186.602 22.0853H200.813V12.6427H186.583C184.641 12.6113 182.704 12.8272 180.825 13.2845C179.26 13.6654 177.823 14.4067 176.647 15.44C175.509 16.5163 174.687 17.8465 174.26 19.3031C173.74 21.0677 173.494 22.8927 173.531 24.7222V26.681C173.505 28.252 173.695 29.8197 174.094 31.3463C174.454 32.7028 175.209 33.9409 176.276 34.9248C177.449 35.9374 178.878 36.6581 180.431 37.0198C182.442 37.4874 184.511 37.7033 186.583 37.6616H208.075C208.2 37.6624 208.324 37.6725 208.446 37.6919H208.499C208.609 37.7141 208.718 37.7434 208.824 37.7796L208.88 37.7978C208.987 37.8339 209.091 37.8796 209.189 37.9341L209.228 37.9552C209.331 38.0108 209.43 38.0746 209.521 38.146C209.859 38.4066 210.109 38.7525 210.241 39.142V39.1602C210.267 39.2468 210.287 39.3347 210.303 39.4236V39.4811C210.317 39.5744 210.324 39.6684 210.325 39.7626V42.3844C210.321 42.7586 210.213 43.1253 210.01 43.4486C209.807 43.7719 209.518 44.0405 209.169 44.2281C209.009 44.314 208.837 44.3801 208.658 44.4249L208.603 44.4401L208.391 44.4794H208.319C208.229 44.4916 208.137 44.4977 208.046 44.4976H173.469V53.9493H207.167C209.268 53.9837 211.367 53.7804 213.416 53.3438C215.036 52.999 216.552 52.3168 217.848 51.3487C219.051 50.3992 219.941 49.1522 220.414 47.7521C220.939 46.1268 221.187 44.4352 221.15 42.7386V39.6597C221.184 38.0087 220.935 36.3632 220.411 34.7855"
                            fill="white"
                        />
                        <path
                            d="M204.597 0C203.184 0.00107996 201.799 0.363456 200.593 1.04747C199.387 1.73148 198.406 2.71078 197.759 3.87817H228.829V33.184C230.053 32.7586 231.108 31.9958 231.854 30.9976C232.599 29.9994 232.999 28.8135 233 27.5983V0H204.597Z"
                            fill="#ED1C24"
                        />
                        <path
                            d="M219.115 9.64856C219.816 9.65317 220.504 9.82073 221.117 10.136C221.761 10.4556 222.291 10.9427 222.641 11.5377C222.996 12.1134 223.182 12.7651 223.182 13.4283C223.182 14.0916 222.996 14.7433 222.641 15.319C222.294 15.9098 221.772 16.3961 221.137 16.7207C220.519 17.048 219.821 17.2201 219.11 17.2201C218.399 17.2201 217.7 17.048 217.083 16.7207C216.447 16.3961 215.924 15.9099 215.575 15.319C215.219 14.744 215.031 14.092 215.031 13.4283C215.031 12.7647 215.219 12.1127 215.575 11.5377C215.927 10.9425 216.457 10.4554 217.102 10.136C217.714 9.82074 218.402 9.65316 219.102 9.64856M219.102 10.2752C218.517 10.2788 217.942 10.4194 217.431 10.684C216.896 10.952 216.455 11.3577 216.161 11.8525C215.863 12.3342 215.704 12.88 215.702 13.4359C215.703 13.9864 215.859 14.5271 216.155 15.0041C216.447 15.4971 216.884 15.9025 217.415 16.1727C217.928 16.4483 218.51 16.5933 219.103 16.5933C219.696 16.5933 220.278 16.4483 220.792 16.1727C221.323 15.9032 221.759 15.4976 222.049 15.0041C222.345 14.5272 222.504 13.9868 222.508 13.4359C222.505 12.8804 222.348 12.3351 222.052 11.8525C221.759 11.3571 221.318 10.9512 220.782 10.684C220.271 10.4194 219.696 10.2788 219.111 10.2752M217.33 15.5279V11.4529H218.835C219.211 11.4372 219.588 11.4761 219.952 11.568C220.177 11.6391 220.37 11.7775 220.502 11.9615C220.636 12.1386 220.708 12.3503 220.707 12.567C220.708 12.7113 220.679 12.8544 220.62 12.9879C220.561 13.1215 220.475 13.2429 220.365 13.3451C220.124 13.5716 219.799 13.7047 219.457 13.7175C219.594 13.7663 219.72 13.8393 219.828 13.9324C220.076 14.1788 220.295 14.4499 220.479 14.7407L221.013 15.537H220.15L219.763 14.8951C219.58 14.5331 219.329 14.2049 219.02 13.9264C218.853 13.8222 218.654 13.7721 218.454 13.7841H218.037V15.5158L217.33 15.5279ZM218.037 13.2361H218.893C219.186 13.2637 219.48 13.2032 219.733 13.0635C219.853 12.9707 219.931 12.8401 219.952 12.697C219.974 12.5538 219.938 12.4083 219.851 12.2885C219.775 12.192 219.671 12.1183 219.551 12.0766C219.32 12.0172 219.08 11.9937 218.841 12.0069H218.037V13.2361Z"
                            fill="white"
                        />
                    </g>
                    <defs>
                        <filter
                            id="filter0_d_1_187"
                            x="0"
                            y="0"
                            width="237"
                            height="76.7306"
                            filterUnits="userSpaceOnUse"
                            colorInterpolationFilters="sRGB"
                        >
                            <feFlood floodOpacity="0" result="BackgroundImageFix" />
                            <feColorMatrix
                                in="SourceAlpha"
                                type="matrix"
                                values="0 0 0 0 0 0 0 0 0 0 0 0 0 0 0 0 0 0 127 0"
                                result="hardAlpha"
                            />
                            <feOffset dy="4" />
                            <feGaussianBlur stdDeviation="2" />
                            <feComposite in2="hardAlpha" operator="out" />
                            <feColorMatrix type="matrix" values="0 0 0 0 0 0 0 0 0 0 0 0 0 0 0 0 0 0 0.25 0" />
                            <feBlend mode="normal" in2="BackgroundImageFix" result="effect1_dropShadow_1_187" />
                            <feBlend mode="normal" in="SourceGraphic" in2="effect1_dropShadow_1_187" result="shape" />
                        </filter>
                    </defs>
                </svg>