<svg width="58" height="58" viewBox="0 0 58 58" fill="none" xmlns="http://www.w3.org/2000/svg">
<g filter="url(#filter0_d_497_642)">
<circle cx="29" cy="25" r="25" fill="white" fill-opacity="0.8" shape-rendering="crispEdges"/>
</g>
<path d="M27.1168 39.7298C26.7691 39.7264 26.4222 39.692 26.0805 39.6276C25.6342 39.5436 25.1773 39.4569 24.7444 39.3043C21.8779 38.2871 20.1672 36.38 19.7511 33.5828C19.3812 31.0823 20.3522 29.0056 22.3865 27.3527C22.5714 27.2256 22.6176 27.056 22.6176 26.8865C22.6176 22.7331 22.6176 18.5797 22.6176 14.4263C22.6176 12.4344 23.9584 10.7392 25.9927 10.1882C29.0442 9.34057 32.0957 11.4596 32.0957 14.4687C32.0494 18.5797 32.0957 22.6907 32.0957 26.8017C32.0957 27.056 32.1881 27.2679 32.4193 27.4375C34.6848 29.387 35.5633 31.7604 34.7773 34.5152C33.9913 37.27 31.957 38.9652 28.9517 39.6433C28.9026 39.6508 28.8535 39.6583 28.8047 39.6658C28.3798 39.7311 27.9489 39.7497 27.5192 39.7373C27.3835 39.7333 27.2496 39.7311 27.1168 39.7298ZM30.1538 20.826C30.1538 18.6221 30.1538 16.4183 30.1538 14.2144C30.1538 12.3497 27.9808 11.163 26.1777 11.9682C25.068 12.4768 24.5595 13.282 24.5595 14.4263C24.5595 18.7493 24.5595 23.0722 24.5595 27.3951C24.5595 27.8189 24.4208 28.158 24.0047 28.4122C22.2015 29.6413 21.4155 31.2518 21.6467 33.2861C21.9704 36.2528 25.1143 38.4567 28.2582 37.9057C30.7549 37.4819 32.3268 36.0833 32.9741 33.8371C33.5289 31.8028 32.6043 29.6837 30.7086 28.4122C30.3388 28.158 30.1538 27.8613 30.1538 27.4375C30.1538 25.2336 30.1538 23.0298 30.1538 20.826Z" fill="#349E49"/>
<path d="M36.3951 13.4096C36.8574 13.4096 37.3198 13.4096 37.7821 13.4096C38.3832 13.4096 38.7993 13.791 38.7993 14.2572C38.7993 14.7658 38.3832 15.1472 37.7821 15.1472C36.8112 15.1472 35.8865 15.1472 34.9156 15.1472C34.3146 15.1472 33.8984 14.7658 33.8984 14.2572C33.8984 13.7486 34.3608 13.3672 34.9618 13.3672C35.4704 13.4096 35.9328 13.4096 36.3951 13.4096Z" fill="#349E49"/>
<path d="M36.3951 16.9268C36.8574 16.9268 37.3198 16.9268 37.7821 16.9268C38.3832 16.9268 38.7993 17.3082 38.7993 17.8168C38.7993 18.3253 38.3832 18.7068 37.7821 18.7068C36.8112 18.7068 35.8865 18.7068 34.9156 18.7068C34.3146 18.7068 33.8984 18.3253 33.8984 17.8168C33.8984 17.3506 34.3146 16.9691 34.9156 16.9268H34.9618C35.4704 16.9268 35.9328 16.9268 36.3951 16.9268Z" fill="#349E49"/>
<path d="M36.3948 22.1401C35.9324 22.1401 35.4701 22.1401 35.0077 22.1401C34.4067 22.1401 33.9443 21.7587 33.9443 21.2501C33.9443 20.7415 34.3604 20.3601 35.0077 20.3601C35.9324 20.3601 36.8571 20.3601 37.7818 20.3601C38.3828 20.3601 38.7989 20.7415 38.7989 21.2501C38.7989 21.7587 38.3828 22.1401 37.7818 22.1401C37.3195 22.1825 36.8571 22.1401 36.3948 22.1401Z" fill="#349E49"/>
<path d="M36.3485 25.6581C35.8862 25.6581 35.4238 25.6581 35.0077 25.6581C34.4067 25.6581 33.9443 25.2766 33.9443 24.8104C33.9443 24.3018 34.3604 23.9204 35.0077 23.9204C35.9324 23.9204 36.8571 23.9204 37.7818 23.9204C38.4291 23.9204 38.8452 24.3018 38.8452 24.8104C38.8452 25.319 38.4291 25.6581 37.7818 25.6581C37.7818 25.6581 37.7818 25.6581 37.7818 25.6581C37.7818 25.6581 37.7818 25.6581 37.7355 25.6581C37.2732 25.6581 36.8109 25.6581 36.3485 25.6581Z" fill="#349E49"/>
<path d="M28.304 28.8784C28.304 29.0797 28.4377 29.2554 28.6266 29.3249C30.8977 30.1606 31.4338 32.1164 31.1243 33.4133C30.7545 35.0238 29.1825 36.2104 27.3794 36.2104C25.53 36.2104 23.958 35.0661 23.5419 33.4556C23.188 32.158 23.723 30.1232 26.0377 29.3188C26.227 29.253 26.3622 29.0788 26.3622 28.8784C26.3622 25.2336 26.3622 21.5888 26.3622 17.944C26.3622 17.8169 26.3622 17.6473 26.4084 17.5202C26.5471 17.0964 26.9633 16.8421 27.4256 16.8845C27.8879 16.9269 28.2578 17.3083 28.304 17.7321C28.304 17.8169 28.304 17.944 28.304 18.0288C28.304 21.6312 28.304 25.276 28.304 28.8784ZM27.3331 30.9127C26.2697 30.9127 25.3913 31.7604 25.3913 32.7352C25.3913 33.7099 26.316 34.5152 27.3794 34.5152C28.4427 34.5152 29.3212 33.6675 29.3212 32.6928C29.275 31.718 28.3965 30.9127 27.3331 30.9127Z" fill="#349E49"/>
<defs>
<filter id="filter0_d_497_642" x="0" y="0" width="58" height="58" filterUnits="userSpaceOnUse" color-interpolation-filters="sRGB">
<feFlood flood-opacity="0" result="BackgroundImageFix"/>
<feColorMatrix in="SourceAlpha" type="matrix" values="0 0 0 0 0 0 0 0 0 0 0 0 0 0 0 0 0 0 127 0" result="hardAlpha"/>
<feOffset dy="4"/>
<feGaussianBlur stdDeviation="2"/>
<feComposite in2="hardAlpha" operator="out"/>
<feColorMatrix type="matrix" values="0 0 0 0 0 0 0 0 0 0 0 0 0 0 0 0 0 0 0.25 0"/>
<feBlend mode="normal" in2="BackgroundImageFix" result="effect1_dropShadow_497_642"/>
<feBlend mode="normal" in="SourceGraphic" in2="effect1_dropShadow_497_642" result="shape"/>
</filter>
</defs>
</svg>
