<svg width="34" height="34" viewBox="0 0 34 34" fill="none" xmlns="http://www.w3.org/2000/svg">
<path d="M17.0278 4.12256C12.3387 4.12256 8.52785 7.93339 8.52785 12.6226V16.7167C8.52785 17.5809 8.15951 18.8984 7.72035 19.6351L6.09118 22.3409C5.08535 24.0126 5.77951 25.8684 7.62118 26.4917C13.727 28.5317 20.3145 28.5317 26.4203 26.4917C28.1345 25.9251 28.8853 23.8992 27.9503 22.3409L26.3212 19.6351C25.8962 18.8984 25.5278 17.5809 25.5278 16.7167V12.6226C25.5278 7.94756 21.7028 4.12256 17.0278 4.12256Z" stroke="#349E49" stroke-width="2" stroke-miterlimit="10" stroke-linecap="round"/>
<path d="M19.4284 3.4C19.0215 3.31904 18.6014 3.25608 18.1682 3.2201C16.908 3.11217 15.7002 3.17513 14.5713 3.4C14.952 2.73439 15.8972 2.26666 16.9999 2.26666C18.1026 2.26666 19.0477 2.73439 19.4284 3.4Z" stroke="#349E49" stroke-width="2" stroke-miterlimit="10" stroke-linecap="round" stroke-linejoin="round"/>
<path d="M21.2783 27.0017C21.2783 29.3392 19.3658 31.2517 17.0283 31.2517C15.8667 31.2517 14.79 30.77 14.025 30.005C13.26 29.24 12.7783 28.1634 12.7783 27.0017" stroke="#349E49" stroke-width="2" stroke-miterlimit="10"/>
</svg>
