<svg xmlns="http://www.w3.org/2000/svg" width="24" height="18" viewBox="0 0 24 18" fill="none">
<path fill-rule="evenodd" clip-rule="evenodd" d="M15.291 11.2974C15.7464 10.292 16 9.17561 16 8C16 3.58172 12.4183 0 8 0C3.58172 0 0 3.58172 0 8C0 12.4183 3.58172 16 8 16C10.7058 16 13.0979 14.6567 14.5457 12.6005L14.6025 12.636L22.6025 17.636C22.9538 17.8555 23.4165 17.7488 23.636 17.3975C23.8555 17.0462 23.7488 16.5835 23.3975 16.364L15.3975 11.364L15.291 11.2974ZM8 14.6746C4.31371 14.6746 1.32538 11.6863 1.32538 8C1.32538 4.31371 4.31371 1.32538 8 1.32538C11.6863 1.32538 14.6746 4.31371 14.6746 8C14.6746 11.6863 11.6863 14.6746 8 14.6746Z" fill="#0D72BB"/>
</svg>