 <svg xmlns="http://www.w3.org/2000/svg" width="48" height="48" viewBox="0 0 48 48" fill="none">
                <path
                    d="M20.5325 3.7716C21.3673 0.0761323 26.6327 0.0761323 27.4675 3.7716C28.3129 7.51412 32.6076 9.29306 35.8517 7.24447C39.0551 5.22163 42.7784 8.9449 40.7555 12.1483C38.7069 15.3924 40.4859 19.6871 44.2284 20.5325C47.9239 21.3673 47.9239 26.6327 44.2284 27.4675C40.4859 28.3129 38.7069 32.6076 40.7555 35.8518C42.7784 39.0551 39.0551 42.7784 35.8517 40.7555C32.6076 38.7069 28.3129 40.4859 27.4675 44.2284C26.6327 47.9239 21.3673 47.9239 20.5325 44.2284C19.6871 40.4859 15.3924 38.7069 12.1483 40.7555C8.94491 42.7784 5.22164 39.0551 7.24448 35.8518C9.29306 32.6076 7.51412 28.3129 3.7716 27.4675C0.0761334 26.6327 0.0761314 21.3673 3.7716 20.5325C7.51412 19.6871 9.29306 15.3924 7.24448 12.1483C5.22164 8.9449 8.94491 5.22164 12.1483 7.24447C15.3924 9.29306 19.6871 7.51412 20.5325 3.7716Z"
                    stroke="#349E49"
                    strokeWidth="2"
                />
                <path
                    d="M30.76 24.2378C30.76 27.8398 27.8399 30.7598 24.2379 30.7598C20.6359 30.7598 17.7158 27.8398 17.7158 24.2378C17.7158 20.6357 20.6359 17.7157 24.2379 17.7157C27.8399 17.7157 30.76 20.6357 30.76 24.2378Z"
                    stroke="#349E49"
                    strokeWidth="2"
                />
            </svg>