<svg xmlns="http://www.w3.org/2000/svg" width="17" height="17" viewBox="0 0 17 17" fill="none">
  <path fill-rule="evenodd" clip-rule="evenodd" d="M8.5 0C8.8912 0 9.20833 0.317132 9.20833 0.708333V11.0399L12.2491 7.99913C12.5258 7.72251 12.9742 7.72251 13.2509 7.99913C13.5275 8.27575 13.5275 8.72425 13.2509 9.00087L8.5 13.7517L3.74913 9.00087C3.47251 8.72425 3.47251 8.27575 3.74913 7.99913C4.02575 7.72251 4.47425 7.72251 4.75087 7.99913L7.79167 11.0399V0.708333C7.79167 0.317132 8.1088 0 8.5 0ZM0.708333 11.3333C1.09953 11.3333 1.41667 11.6505 1.41667 12.0417V15.5833H15.5833V12.0417C15.5833 11.6505 15.9005 11.3333 16.2917 11.3333C16.6829 11.3333 17 11.6505 17 12.0417V15.5833C17 16.3657 16.3657 17 15.5833 17H1.41667C0.634263 17 0 16.3657 0 15.5833V12.0417C0 11.6505 0.317132 11.3333 0.708333 11.3333Z" fill="white"/>
</svg>