<svg xmlns="http://www.w3.org/2000/svg" width="17" height="17" viewBox="0 0 17 17" fill="none">
<path fill-rule="evenodd" clip-rule="evenodd" d="M2.34526 5.15833L3.33776 5.16494C3.75197 5.1677 4.08551 5.50572 4.08275 5.91992C4.07999 6.33413 3.74197 6.66767 3.32777 6.66491L0.745003 6.6477C0.332749 6.64495 0 6.30998 0 5.89772V3.33275C0 2.91853 0.335786 2.58275 0.75 2.58275C1.16421 2.58275 1.5 2.91853 1.5 3.33275V3.67513C3.03486 1.45643 5.59707 0 8.4983 0C13.1913 0 16.9966 3.8053 16.9966 8.4983C16.9966 13.1913 13.1913 16.9966 8.4983 16.9966C3.8053 16.9966 0 13.1913 0 8.4983C0 8.08409 0.335786 7.7483 0.75 7.7483C1.16421 7.7483 1.5 8.08409 1.5 8.4983C1.5 12.3629 4.63373 15.4966 8.4983 15.4966C12.3629 15.4966 15.4966 12.3629 15.4966 8.4983C15.4966 4.63373 12.3629 1.5 8.4983 1.5C5.84825 1.5 3.53783 2.97586 2.34655 5.15598C2.34612 5.15676 2.3457 5.15755 2.34526 5.15833ZM6.93506 5.10153C6.93506 4.99705 7.01776 4.79625 7.38493 4.59271C7.73473 4.39879 8.25163 4.26322 8.84923 4.26322C9.44684 4.26322 9.96373 4.39879 10.3135 4.59271C10.6807 4.79625 10.7634 4.99705 10.7634 5.10153V5.39365H6.93506V5.10153ZM5.93506 5.52191V5.10153C5.93506 4.46742 6.39326 3.99907 6.90009 3.7181C7.42429 3.42751 8.11448 3.26322 8.84923 3.26322C9.58398 3.26322 10.2742 3.42751 10.7984 3.7181C11.3052 3.99907 11.7634 4.46742 11.7634 5.10153V5.52202C12.8213 5.87161 13.5739 6.89415 13.5739 8.07884V10.1001C13.5739 11.567 12.4201 12.7853 10.9615 12.7853H6.73667C5.27805 12.7853 4.12427 11.567 4.12427 10.1001V8.07884C4.12427 6.89403 4.87698 5.8714 5.93506 5.52191ZM10.025 8.80734C10.025 9.27682 9.73023 9.63157 9.34888 9.79844V10.368C9.34888 10.6442 9.12502 10.868 8.84888 10.868C8.57273 10.868 8.34888 10.6442 8.34888 10.368V9.79828C7.9677 9.63134 7.6731 9.27666 7.6731 8.80734C7.6731 8.14484 8.26014 7.71079 8.84906 7.71079C9.43798 7.71079 10.025 8.14484 10.025 8.80734ZM8.70193 8.7604C8.67418 8.78489 8.6731 8.80248 8.6731 8.80734C8.6731 8.8122 8.67418 8.8298 8.70193 8.85428C8.73063 8.87961 8.78117 8.9039 8.84906 8.9039C8.91695 8.9039 8.9675 8.87961 8.99619 8.85428C9.02394 8.8298 9.02503 8.8122 9.02503 8.80734C9.02503 8.80248 9.02394 8.78489 8.99619 8.7604C8.9675 8.73508 8.91695 8.71079 8.84906 8.71079C8.78117 8.71079 8.73063 8.73508 8.70193 8.7604ZM5.12427 8.07884C5.12427 7.13204 5.86199 6.39365 6.73667 6.39365H10.9615C11.8361 6.39365 12.5739 7.13204 12.5739 8.07884V10.1001C12.5739 11.0469 11.8361 11.7853 10.9615 11.7853H6.73667C5.86199 11.7853 5.12427 11.0469 5.12427 10.1001V8.07884Z" fill="white"/>
</svg>