<svg xmlns="http://www.w3.org/2000/svg" width="26" height="26" viewBox="0 0 26 26" fill="none">
<path d="M13.3872 2.60108C13.5926 2.64144 13.7981 2.67079 13.9998 2.72215C16.0433 3.26512 17.3567 4.55649 17.7823 6.62563C17.9092 7.28261 17.9031 7.95837 17.7643 8.61295C17.6255 9.26753 17.3569 9.88762 16.9743 10.4366C16.5916 10.9855 16.1028 11.4521 15.5367 11.8088C14.9706 12.1655 14.3386 12.4051 13.6783 12.5133C13.018 12.6215 12.3427 12.5962 11.6923 12.4388C11.042 12.2815 10.4298 11.9953 9.89194 11.5972C9.35411 11.1991 8.90159 10.6972 8.56113 10.1212C8.22067 9.54513 7.9992 8.90666 7.90982 8.24353C7.75588 7.17064 7.96001 6.07693 8.49061 5.1318C9.0212 4.18668 9.84865 3.44289 10.8448 3.01565C11.2741 2.86082 11.7143 2.73819 12.1618 2.64878L12.3122 2.60475L13.3872 2.60108ZM12.8772 11.4059C13.6257 11.4045 14.357 11.1812 14.9786 10.7643C15.6003 10.3474 16.0844 9.75559 16.3699 9.06365C16.6553 8.3717 16.7292 7.61068 16.5823 6.87673C16.4354 6.14279 16.0742 5.46886 15.5445 4.9401C15.0147 4.41134 14.34 4.05147 13.6058 3.90598C12.8716 3.76049 12.1107 3.83589 11.4193 4.12267C10.7279 4.40944 10.1371 4.89472 9.72135 5.51718C9.30566 6.13964 9.08379 6.87135 9.08379 7.61985C9.08133 8.11767 9.17794 8.61099 9.36798 9.07112C9.55802 9.53124 9.8377 9.94896 10.1907 10.2999C10.5438 10.6509 10.9631 10.9282 11.4243 11.1155C11.8855 11.3029 12.3794 11.3966 12.8772 11.3913V11.4059Z" fill="white"/>
<path d="M13.009 23.3952C11.2664 23.3952 9.52741 23.3952 7.78845 23.3952C7.02419 23.3989 6.27916 23.1557 5.66428 22.7018C5.29805 22.4416 4.99307 22.1046 4.77065 21.7142C4.54823 21.3239 4.41374 20.8897 4.37658 20.4419C4.21426 18.7447 4.45303 17.0331 5.07362 15.4452C5.41146 14.4544 6.10057 13.6217 7.01069 13.1045C7.59101 12.7898 8.24378 12.633 8.90374 12.6496C9.1244 12.6751 9.3364 12.7504 9.52375 12.8698C9.82458 13.0312 10.1071 13.2366 10.4006 13.4164C11.2642 13.9987 12.2958 14.2798 13.3355 14.2162C14.1181 14.1547 14.8738 13.9028 15.5367 13.4824C15.7732 13.3521 16 13.2049 16.2154 13.0422C16.469 12.8488 16.7655 12.7194 17.0797 12.6651C17.394 12.6108 17.7167 12.6332 18.0204 12.7303C18.5913 12.8546 19.1266 13.1062 19.5866 13.4664C20.0465 13.8266 20.4191 14.2861 20.6766 14.8105C21.1592 15.7223 21.4607 16.719 21.5644 17.7454C21.6481 18.5056 21.6897 19.2699 21.6891 20.0347C21.6938 20.8138 21.4209 21.5691 20.9195 22.1653C20.418 22.7616 19.7206 23.1599 18.9523 23.2888C18.6328 23.3475 18.3086 23.377 17.9837 23.3769C16.3328 23.3769 14.6819 23.3769 13.031 23.3769L13.009 23.3952ZM13.009 22.1809H13.6584C15.1478 22.1809 16.6373 22.1992 18.1268 22.1809C19.6163 22.1625 20.4858 21.26 20.4601 19.7485C20.4497 19.1463 20.4081 18.5451 20.3354 17.9472C20.2554 17.0653 20.0063 16.2071 19.6016 15.4195C19.4322 15.0598 19.1855 14.7418 18.8793 14.4882C18.573 14.2345 18.2147 14.0515 17.8297 13.952C17.6613 13.8919 17.4804 13.8755 17.3039 13.9044C17.1275 13.9333 16.9612 14.0065 16.8208 14.1171C16.6444 14.2532 16.458 14.3759 16.2631 14.484C15.4147 15.0566 14.4289 15.3925 13.4074 15.457C12.3858 15.5215 11.3656 15.3122 10.4519 14.8508C9.94198 14.6087 9.47972 14.2712 8.98445 13.9814C8.91313 13.9313 8.82929 13.9021 8.74231 13.897C8.40327 13.8973 8.06813 13.9694 7.75894 14.1086C7.44975 14.2477 7.17349 14.4506 6.94832 14.7041C6.51101 15.2131 6.19045 15.8116 6.00914 16.4577C5.69144 17.5639 5.5418 18.7116 5.56523 19.8623C5.54075 20.2259 5.60864 20.5898 5.76259 20.9202C5.91653 21.2505 6.15153 21.5365 6.44571 21.7516C6.93113 22.0671 7.50378 22.2212 8.08195 22.1919L13.009 22.1809Z" fill="white"/>
</svg>