<svg xmlns="http://www.w3.org/2000/svg" width="48" height="48" viewBox="0 0 48 48" fill="none">
          <path
            d="M24.715 4.802C25.0943 4.8765 25.4736 4.93069 25.8461 5.02551C29.6186 6.02791 32.0434 8.41199 32.829 12.2319C33.0634 13.4448 33.0521 14.6924 32.7959 15.9008C32.5397 17.1093 32.0437 18.2541 31.3373 19.2675C30.6309 20.2809 29.7285 21.1424 28.6833 21.8009C27.6382 22.4594 26.4716 22.9017 25.2525 23.1014C24.0335 23.3012 22.7867 23.2545 21.5861 22.964C20.3854 22.6735 19.2552 22.1452 18.2623 21.4102C17.2694 20.6753 16.4339 19.7487 15.8054 18.6852C15.1769 17.6218 14.768 16.4431 14.603 15.2188C14.3188 13.2381 14.6956 11.2189 15.6752 9.4741C16.6548 7.72926 18.1823 6.35611 20.0213 5.56735C20.8139 5.28153 21.6266 5.05513 22.4528 4.89005L22.7305 4.80878L24.715 4.802ZM23.7735 21.0571C25.1554 21.0544 26.5055 20.6422 27.6531 19.8726C28.8008 19.1029 29.6946 18.0103 30.2215 16.7329C30.7485 15.4555 30.885 14.0505 30.6137 12.6955C30.3425 11.3405 29.6758 10.0964 28.6977 9.12019C27.7196 8.14402 26.4741 7.47965 25.1186 7.21105C23.7632 6.94244 22.3585 7.08165 21.0821 7.61108C19.8056 8.14051 18.7148 9.03641 17.9473 10.1856C17.1799 11.3347 16.7703 12.6856 16.7703 14.0674C16.7658 14.9865 16.9441 15.8972 17.295 16.7467C17.6458 17.5961 18.1621 18.3673 18.8139 19.0153C19.4656 19.6633 20.2398 20.1751 21.0913 20.521C21.9428 20.8669 22.8545 21.0399 23.7735 21.03V21.0571Z"
            fill="#349E49"
          />
          <path
            d="M24.0173 43.1912C20.8001 43.1912 17.5897 43.1912 14.3794 43.1912C12.9684 43.198 11.593 42.7491 10.4578 41.9111C9.78168 41.4307 9.21865 40.8084 8.80803 40.0878C8.39741 39.3671 8.14911 38.5655 8.08051 37.7389C7.78085 34.6057 8.22165 31.4458 9.36737 28.5142C9.99106 26.685 11.2633 25.1478 12.9435 24.193C14.0149 23.612 15.22 23.3224 16.4383 23.3532C16.8457 23.4002 17.2371 23.5392 17.583 23.7595C18.1384 24.0576 18.6599 24.4368 19.2017 24.7687C20.7961 25.8437 22.7007 26.3627 24.6201 26.2452C26.0649 26.1318 27.46 25.6668 28.6839 24.8906C29.1204 24.65 29.5391 24.3783 29.9369 24.0779C30.405 23.7208 30.9523 23.482 31.5325 23.3818C32.1126 23.2815 32.7084 23.3228 33.2692 23.5022C34.323 23.7316 35.3114 24.1961 36.1605 24.8611C37.0096 25.5261 37.6975 26.3743 38.1728 27.3424C39.0638 29.0258 39.6204 30.8658 39.8119 32.7608C39.9664 34.1643 40.0433 35.5752 40.0421 36.9871C40.0507 38.4255 39.547 39.8198 38.6212 40.9206C37.6954 42.0214 36.408 42.7567 34.9895 42.9948C34.3996 43.1032 33.8012 43.1576 33.2014 43.1573C30.1536 43.1573 27.1058 43.1573 24.0579 43.1573L24.0173 43.1912ZM24.0173 40.9493H25.2161C27.9659 40.9493 30.7157 40.9832 33.4656 40.9493C36.2154 40.9155 37.8206 39.2493 37.7732 36.4589C37.754 35.3471 37.6771 34.2371 37.5429 33.1333C37.3953 31.5052 36.9354 29.9208 36.1883 28.4668C35.8754 27.8027 35.4201 27.2156 34.8547 26.7474C34.2893 26.2792 33.6277 25.9412 32.917 25.7576C32.6061 25.6466 32.2721 25.6164 31.9464 25.6697C31.6206 25.723 31.3137 25.8581 31.0544 26.0623C30.7287 26.3137 30.3846 26.5401 30.0249 26.7396C28.4586 27.7968 26.6387 28.4169 24.7528 28.536C22.8668 28.655 20.9833 28.2687 19.2965 27.4169C18.3551 26.9699 17.5017 26.3468 16.5873 25.8118C16.4557 25.7194 16.3009 25.6654 16.1403 25.656C15.5144 25.6566 14.8957 25.7897 14.3249 26.0466C13.7541 26.3034 13.244 26.6781 12.8283 27.146C12.021 28.0857 11.4292 29.1907 11.0945 30.3835C10.5079 32.4257 10.2317 34.5445 10.2749 36.6688C10.2298 37.3401 10.3551 38.012 10.6393 38.6218C10.9235 39.2317 11.3573 39.7597 11.9004 40.1569C12.7966 40.7392 13.8538 41.0237 14.9212 40.9697L24.0173 40.9493Z"
            fill="#349E49"
          />
        </svg>