<svg xmlns="http://www.w3.org/2000/svg" width="16" height="16" viewBox="0 0 16 16" fill="none">
                <path fill-rule="evenodd" clip-rule="evenodd" d="M15.3626 2.18158C15.6555 1.88869 15.6555 1.41381 15.3626 1.12092C15.0697 0.828029 14.5949 0.828029 14.302 1.12092L8.00647 7.41641L1.94621 1.35615C1.65332 1.06325 1.17844 1.06325 0.885552 1.35615C0.592659 1.64904 0.592658 2.12391 0.885552 2.41681L6.94581 8.47707L1.12085 14.302C0.82796 14.5949 0.827961 15.0698 1.12085 15.3627C1.41375 15.6556 1.88862 15.6556 2.18151 15.3627L8.00647 9.53773L14.0667 15.5979C14.3596 15.8908 14.8344 15.8908 15.1273 15.5979C15.4202 15.305 15.4202 14.8301 15.1273 14.5373L9.06713 8.47707L15.3626 2.18158Z" fill="#0D72BB"/>
                </svg>